# Blender 4.0.1
# www.blender.org
mtllib drone.mtl
o drone
v -9.899495 0.249999 -9.899495
v 9.899495 0.250001 9.899495
v -9.865007 0.245196 -9.933983
v 9.933983 0.245197 9.865007
v -9.831845 0.230969 -9.967145
v 9.967145 0.230970 9.831845
v -9.801283 0.207867 -9.997707
v 9.997707 0.207868 9.801283
v -9.774495 0.176776 -10.024495
v 10.024495 0.176777 9.774495
v -9.752511 0.138892 -10.046479
v 10.046479 0.138893 9.752511
v -9.736175 0.095670 -10.062816
v 10.062816 0.095671 9.736175
v -9.726115 0.048772 -10.072875
v 10.072875 0.048773 9.726115
v -9.722718 -0.000001 -10.076272
v 10.076272 0.000001 9.722718
v -9.726115 -0.048773 -10.072875
v 10.072875 -0.048772 9.726115
v -9.736175 -0.095671 -10.062816
v 10.062816 -0.095670 9.736175
v -9.752511 -0.138893 -10.046479
v 10.046479 -0.138892 9.752511
v -9.774495 -0.176777 -10.024495
v 10.024495 -0.176776 9.774495
v -9.801283 -0.207868 -9.997707
v 9.997707 -0.207867 9.801283
v -9.831845 -0.230971 -9.967145
v 9.967145 -0.230969 9.831845
v -9.865007 -0.245197 -9.933983
v 9.933983 -0.245196 9.865007
v -9.899495 -0.250001 -9.899495
v 9.899495 -0.249999 9.899495
v -9.933983 -0.245197 -9.865007
v 9.865007 -0.245196 9.933983
v -9.967145 -0.230970 -9.831845
v 9.831845 -0.230969 9.967145
v -9.997707 -0.207868 -9.801283
v 9.801283 -0.207867 9.997707
v -10.024495 -0.176777 -9.774495
v 9.774495 -0.176776 10.024495
v -10.046479 -0.138893 -9.752511
v 9.752511 -0.138892 10.046479
v -10.062816 -0.095671 -9.736175
v 9.736175 -0.095670 10.062816
v -10.072875 -0.048773 -9.726115
v 9.726115 -0.048772 10.072875
v -10.076272 -0.000001 -9.722718
v 9.722718 0.000001 10.076272
v -10.072875 0.048772 -9.726115
v 9.726115 0.048773 10.072875
v -10.062816 0.095670 -9.736175
v 9.736175 0.095671 10.062816
v -10.046479 0.138892 -9.752511
v 9.752511 0.138893 10.046479
v -10.024495 0.176776 -9.774495
v 9.774495 0.176777 10.024495
v -9.997707 0.207867 -9.801283
v 9.801283 0.207868 9.997707
v -9.967145 0.230969 -9.831845
v 9.831845 0.230971 9.967145
v -9.933983 0.245196 -9.865007
v 9.865007 0.245197 9.933983
v 1.000000 1.000000 -1.000000
v 1.000000 -1.000000 -1.000000
v 1.000000 1.000000 1.000000
v 1.000000 -1.000000 1.000000
v -1.000000 1.000000 -1.000000
v -1.000000 -1.000000 -1.000000
v -1.000000 1.000000 1.000000
v -1.000000 -1.000000 1.000000
v 9.000000 -1.000001 -9.000000
v 9.000000 0.999999 -9.000000
v 9.000001 -1.000001 -11.000001
v 9.000001 0.999999 -11.000001
v 11.000001 -1.000001 -9.000001
v 11.000001 0.999999 -9.000001
v 11.000001 -1.000001 -11.000001
v 11.000001 0.999999 -11.000001
v -11.000001 -1.000001 -9.000000
v -11.000001 0.999999 -9.000001
v -11.000000 -1.000001 -11.000000
v -11.000000 0.999999 -11.000000
v -9.000000 -1.000001 -9.000000
v -9.000000 0.999999 -9.000000
v -9.000001 -1.000001 -11.000001
v -9.000001 0.999999 -11.000002
v -11.000001 -0.999999 11.000001
v -11.000001 1.000001 11.000001
v -11.000001 -0.999999 9.000001
v -11.000001 1.000001 9.000001
v -9.000001 -0.999999 11.000001
v -9.000001 1.000001 11.000001
v -9.000000 -0.999999 9.000000
v -9.000000 1.000001 9.000000
v 9.000001 -0.999999 11.000002
v 9.000001 1.000001 11.000001
v 9.000000 -0.999999 9.000000
v 9.000000 1.000001 9.000000
v 11.000000 -0.999999 11.000000
v 11.000000 1.000001 11.000000
v 11.000001 -0.999999 9.000001
v 11.000001 1.000001 9.000000
v 9.899495 0.249999 -9.899495
v -9.899495 0.250001 9.899495
v 9.933983 0.245196 -9.865007
v -9.865007 0.245197 9.933983
v 9.967145 0.230969 -9.831845
v -9.831845 0.230970 9.967145
v 9.997707 0.207867 -9.801283
v -9.801283 0.207868 9.997707
v 10.024495 0.176776 -9.774495
v -9.774495 0.176777 10.024495
v 10.046479 0.138892 -9.752511
v -9.752511 0.138893 10.046479
v 10.062816 0.095670 -9.736175
v -9.736175 0.095671 10.062816
v 10.072875 0.048772 -9.726115
v -9.726115 0.048773 10.072875
v 10.076272 -0.000001 -9.722718
v -9.722718 0.000001 10.076272
v 10.072875 -0.048773 -9.726115
v -9.726115 -0.048772 10.072875
v 10.062816 -0.095671 -9.736175
v -9.736175 -0.095670 10.062816
v 10.046479 -0.138893 -9.752511
v -9.752511 -0.138892 10.046479
v 10.024495 -0.176777 -9.774495
v -9.774495 -0.176776 10.024495
v 9.997707 -0.207868 -9.801283
v -9.801283 -0.207867 9.997707
v 9.967145 -0.230970 -9.831845
v -9.831845 -0.230969 9.967145
v 9.933983 -0.245197 -9.865007
v -9.865007 -0.245196 9.933983
v 9.899495 -0.250001 -9.899495
v -9.899495 -0.249999 9.899495
v 9.865007 -0.245197 -9.933983
v -9.933983 -0.245196 9.865007
v 9.831845 -0.230970 -9.967145
v -9.967145 -0.230969 9.831845
v 9.801283 -0.207868 -9.997707
v -9.997707 -0.207867 9.801283
v 9.774495 -0.176777 -10.024495
v -10.024495 -0.176776 9.774495
v 9.752511 -0.138893 -10.046479
v -10.046479 -0.138892 9.752511
v 9.736175 -0.095671 -10.062816
v -10.062816 -0.095670 9.736175
v 9.726115 -0.048773 -10.072875
v -10.072875 -0.048772 9.726115
v 9.722718 -0.000001 -10.076272
v -10.076272 0.000001 9.722718
v 9.726115 0.048772 -10.072875
v -10.072875 0.048773 9.726115
v 9.736175 0.095670 -10.062816
v -10.062816 0.095671 9.736175
v 9.752511 0.138892 -10.046479
v -10.046479 0.138893 9.752511
v 9.774495 0.176776 -10.024495
v -10.024495 0.176777 9.774495
v 9.801283 0.207867 -9.997707
v -9.997707 0.207868 9.801283
v 9.831845 0.230969 -9.967145
v -9.967145 0.230970 9.831845
v 9.865007 0.245196 -9.933983
v -9.933983 0.245197 9.865007
vn 0.0693 0.9952 -0.0693
vn 0.2053 0.9569 -0.2053
vn 0.3333 0.8819 -0.3333
vn 0.4486 0.7730 -0.4486
vn 0.5466 0.6344 -0.5466
vn 0.6236 0.4714 -0.6236
vn 0.6767 0.2903 -0.6767
vn 0.7037 0.0980 -0.7037
vn 0.7037 -0.0980 -0.7037
vn 0.6767 -0.2903 -0.6767
vn 0.6236 -0.4714 -0.6236
vn 0.5466 -0.6344 -0.5466
vn 0.4486 -0.7730 -0.4486
vn 0.3333 -0.8819 -0.3333
vn 0.2053 -0.9569 -0.2053
vn 0.0693 -0.9952 -0.0693
vn -0.0693 -0.9952 0.0693
vn -0.2053 -0.9569 0.2053
vn -0.3333 -0.8819 0.3333
vn -0.4486 -0.7730 0.4486
vn -0.5466 -0.6344 0.5466
vn -0.6236 -0.4714 0.6236
vn -0.6767 -0.2903 0.6767
vn -0.7037 -0.0980 0.7037
vn -0.7037 0.0980 0.7037
vn -0.6767 0.2903 0.6767
vn -0.6236 0.4714 0.6236
vn -0.5466 0.6344 0.5466
vn -0.4486 0.7730 0.4486
vn -0.3333 0.8819 0.3333
vn 0.7071 -0.0000 0.7071
vn -0.2053 0.9569 0.2053
vn -0.0693 0.9952 0.0693
vn -0.7071 -0.0000 -0.7071
vn -0.0000 1.0000 -0.0000
vn -0.0000 -0.0000 1.0000
vn -1.0000 -0.0000 -0.0000
vn -0.0000 -1.0000 -0.0000
vn 1.0000 -0.0000 -0.0000
vn -0.0000 -0.0000 -1.0000
vn 0.0693 0.9952 0.0693
vn 0.2053 0.9569 0.2053
vn 0.3333 0.8819 0.3333
vn 0.4486 0.7730 0.4486
vn 0.5466 0.6344 0.5466
vn 0.6236 0.4714 0.6236
vn 0.6767 0.2903 0.6767
vn 0.7037 0.0980 0.7037
vn 0.7037 -0.0980 0.7037
vn 0.6767 -0.2903 0.6767
vn 0.6236 -0.4714 0.6236
vn 0.5466 -0.6344 0.5466
vn 0.4486 -0.7730 0.4486
vn 0.3333 -0.8819 0.3333
vn 0.2053 -0.9569 0.2053
vn 0.0693 -0.9952 0.0693
vn -0.0693 -0.9952 -0.0693
vn -0.2053 -0.9569 -0.2053
vn -0.3333 -0.8819 -0.3333
vn -0.4486 -0.7730 -0.4486
vn -0.5466 -0.6344 -0.5466
vn -0.6236 -0.4714 -0.6236
vn -0.6767 -0.2903 -0.6767
vn -0.7037 -0.0980 -0.7037
vn -0.7037 0.0980 -0.7037
vn -0.6767 0.2903 -0.6767
vn -0.6236 0.4714 -0.6236
vn -0.5466 0.6344 -0.5466
vn -0.4486 0.7730 -0.4486
vn -0.3333 0.8819 -0.3333
vn -0.7071 -0.0000 0.7071
vn -0.2053 0.9569 -0.2053
vn -0.0693 0.9952 -0.0693
vn 0.7071 -0.0000 -0.7071
vn -0.7071 -0.0004 0.7071
vn -0.7071 -0.0001 0.7071
vn -0.7071 0.0004 0.7071
vn -0.7071 0.0001 0.7071
vn 0.7071 0.0002 -0.7071
vn 0.7071 -0.0001 -0.7071
vn 0.7071 -0.0002 -0.7071
vn 0.7071 0.0001 -0.7071
vt 0.178487 0.925295
vt 0.179051 0.940701
vt 0.178487 0.940701
vt 0.179051 0.925295
vt 0.179614 0.940701
vt 0.179614 0.925295
vt 0.180177 0.940701
vt 0.180177 0.925295
vt 0.180740 0.940701
vt 0.180740 0.925295
vt 0.181304 0.940701
vt 0.181304 0.925295
vt 0.181867 0.940701
vt 0.181867 0.925295
vt 0.182430 0.940701
vt 0.182430 0.925295
vt 0.182994 0.940701
vt 0.182994 0.925295
vt 0.183557 0.940701
vt 0.183557 0.925295
vt 0.184120 0.940701
vt 0.184120 0.925295
vt 0.184684 0.940701
vt 0.184684 0.925295
vt 0.185247 0.940701
vt 0.185247 0.925295
vt 0.185810 0.940701
vt 0.185810 0.925295
vt 0.186373 0.940701
vt 0.186373 0.925295
vt 0.186937 0.940701
vt 0.186937 0.925295
vt 0.187500 0.940701
vt 0.187500 0.925295
vt 0.188063 0.940701
vt 0.188063 0.925295
vt 0.188627 0.940701
vt 0.188627 0.925295
vt 0.189190 0.940701
vt 0.189190 0.925295
vt 0.189753 0.940701
vt 0.189753 0.925295
vt 0.190317 0.940701
vt 0.190317 0.925295
vt 0.190880 0.940701
vt 0.190880 0.925295
vt 0.191443 0.940701
vt 0.191443 0.925295
vt 0.192006 0.940701
vt 0.192006 0.925295
vt 0.192570 0.940701
vt 0.192570 0.925295
vt 0.193133 0.940701
vt 0.193133 0.925295
vt 0.193696 0.940701
vt 0.193696 0.925295
vt 0.194260 0.940701
vt 0.194260 0.925295
vt 0.194823 0.940701
vt 0.194823 0.925295
vt 0.195386 0.940701
vt 0.193662 0.955236
vt 0.188010 0.951234
vt 0.190351 0.941572
vt 0.195386 0.925295
vt 0.195950 0.940701
vt 0.195950 0.925295
vt 0.196513 0.940701
vt 0.182150 0.955657
vt 0.187237 0.949847
vt 0.183838 0.941151
vt 0.375407 0.875378
vt 0.499585 0.749655
vt 0.500389 0.874617
vt 0.324061 0.934940
vt 0.347679 0.908783
vt 0.324061 0.908783
vt 0.300433 0.908755
vt 0.312206 0.921694
vt 0.312170 0.908694
vt 0.300444 0.961098
vt 0.300444 0.934940
vt 0.367187 0.631618
vt 0.261719 0.745335
vt 0.261719 0.631618
vt 0.118117 0.871061
vt 0.004472 0.756350
vt 0.118117 0.756350
vt 0.312500 0.925011
vt 0.328981 0.930767
vt 0.312500 0.930767
vt 0.312500 0.936523
vt 0.328981 0.936523
vt 0.312500 0.942280
vt 0.328981 0.948036
vt 0.312500 0.948036
vt 0.296019 0.936523
vt 0.296019 0.942280
vt 0.384682 0.990567
vt 0.492139 0.881062
vt 0.492139 0.990567
vt 0.324144 0.913235
vt 0.311523 0.925856
vt 0.311523 0.913235
vt 0.324144 0.925856
vt 0.311523 0.938476
vt 0.324144 0.938476
vt 0.311523 0.951097
vt 0.324144 0.951097
vt 0.311523 0.963717
vt 0.298903 0.938476
vt 0.298903 0.951097
vt 0.263480 0.858349
vt 0.361520 0.762745
vt 0.361520 0.858349
vt 0.320822 0.907184
vt 0.308594 0.919412
vt 0.308594 0.907184
vt 0.320822 0.919412
vt 0.308594 0.931641
vt 0.320822 0.931641
vt 0.308594 0.943869
vt 0.320822 0.943869
vt 0.308594 0.956097
vt 0.296366 0.931641
vt 0.296366 0.943869
vt 0.378919 0.745105
vt 0.496081 0.627942
vt 0.496081 0.745105
vt 0.324778 0.895366
vt 0.307617 0.912527
vt 0.307617 0.895366
vt 0.324778 0.912527
vt 0.307617 0.929687
vt 0.324778 0.929687
vt 0.307617 0.946848
vt 0.324778 0.946848
vt 0.307617 0.964009
vt 0.290456 0.929687
vt 0.290456 0.946848
vt 0.137365 0.744205
vt 0.243495 0.628842
vt 0.243495 0.744205
vt 0.191162 0.941151
vt 0.192006 0.941009
vt 0.192850 0.941151
vt 0.193662 0.941572
vt 0.194410 0.942255
vt 0.195065 0.943175
vt 0.195603 0.944296
vt 0.196003 0.945574
vt 0.196249 0.946961
vt 0.196333 0.948404
vt 0.196249 0.949847
vt 0.196003 0.951234
vt 0.195603 0.952512
vt 0.195065 0.953633
vt 0.194410 0.954553
vt 0.192850 0.955657
vt 0.192006 0.955799
vt 0.191162 0.955657
vt 0.190351 0.955236
vt 0.189603 0.954553
vt 0.188947 0.953633
vt 0.188409 0.952512
vt 0.187763 0.949847
vt 0.187680 0.948404
vt 0.187763 0.946961
vt 0.188010 0.945574
vt 0.188409 0.944296
vt 0.188947 0.943175
vt 0.189603 0.942255
vt 0.196513 0.925295
vt 0.182994 0.941009
vt 0.182150 0.941151
vt 0.181338 0.941572
vt 0.180590 0.942255
vt 0.179935 0.943175
vt 0.179397 0.944296
vt 0.178997 0.945574
vt 0.178751 0.946961
vt 0.178667 0.948404
vt 0.178751 0.949847
vt 0.178997 0.951234
vt 0.179397 0.952512
vt 0.179935 0.953633
vt 0.180590 0.954553
vt 0.181338 0.955236
vt 0.182994 0.955799
vt 0.183838 0.955657
vt 0.184649 0.955236
vt 0.185397 0.954553
vt 0.186053 0.953633
vt 0.186591 0.952512
vt 0.186990 0.951234
vt 0.187320 0.948404
vt 0.187237 0.946961
vt 0.186990 0.945574
vt 0.186591 0.944296
vt 0.186053 0.943175
vt 0.185397 0.942255
vt 0.184649 0.941572
vt 0.374585 0.750424
vt 0.347679 0.934940
vt 0.300469 0.921714
vt 0.324061 0.961098
vt 0.367187 0.745335
vt 0.004472 0.871061
vt 0.328981 0.925011
vt 0.328981 0.942280
vt 0.384682 0.881062
vt 0.324144 0.963717
vt 0.263480 0.762745
vt 0.320822 0.956097
vt 0.378919 0.627942
vt 0.324778 0.964009
vt 0.137365 0.628842
s 0
usemtl Material
f 2/1/1 3/2/1 1/3/1
f 4/4/2 5/5/2 3/2/2
f 6/6/3 7/7/3 5/5/3
f 8/8/4 9/9/4 7/7/4
f 10/10/5 11/11/5 9/9/5
f 12/12/6 13/13/6 11/11/6
f 14/14/7 15/15/7 13/13/7
f 16/16/8 17/17/8 15/15/8
f 18/18/9 19/19/9 17/17/9
f 20/20/10 21/21/10 19/19/10
f 22/22/11 23/23/11 21/21/11
f 24/24/12 25/25/12 23/23/12
f 26/26/13 27/27/13 25/25/13
f 28/28/14 29/29/14 27/27/14
f 30/30/15 31/31/15 29/29/15
f 32/32/16 33/33/16 31/31/16
f 34/34/17 35/35/17 33/33/17
f 36/36/18 37/37/18 35/35/18
f 38/38/19 39/39/19 37/37/19
f 40/40/20 41/41/20 39/39/20
f 42/42/21 43/43/21 41/41/21
f 44/44/22 45/45/22 43/43/22
f 46/46/23 47/47/23 45/45/23
f 48/48/24 49/49/24 47/47/24
f 50/50/25 51/51/25 49/49/25
f 52/52/26 53/53/26 51/51/26
f 54/54/27 55/55/27 53/53/27
f 56/56/28 57/57/28 55/55/28
f 58/58/29 59/59/29 57/57/29
f 60/60/30 61/61/30 59/59/30
f 38/62/31 22/63/31 6/64/31
f 62/65/32 63/66/32 61/61/32
f 64/67/33 1/68/33 63/66/33
f 31/69/34 47/70/34 63/71/34
f 69/72/35 67/73/35 65/74/35
f 68/75/36 71/76/36 72/77/36
f 71/78/37 70/79/37 72/80/37
f 70/81/38 68/75/38 72/82/38
f 66/83/39 67/84/39 68/85/39
f 69/86/40 66/87/40 70/88/40
f 73/89/37 76/90/37 75/91/37
f 76/90/40 79/92/40 75/91/40
f 80/93/39 77/94/39 79/92/39
f 77/94/36 74/95/36 73/96/36
f 75/97/38 77/94/38 73/98/38
f 76/99/35 78/100/35 80/101/35
f 82/102/37 83/103/37 81/104/37
f 84/105/40 87/106/40 83/103/40
f 88/107/39 85/108/39 87/106/39
f 86/109/36 81/110/36 85/108/36
f 83/111/38 85/108/38 81/112/38
f 84/113/35 86/114/35 88/115/35
f 90/116/37 91/117/37 89/118/37
f 92/119/40 95/120/40 91/117/40
f 96/121/39 93/122/39 95/120/39
f 94/123/36 89/124/36 93/122/36
f 91/125/38 93/122/38 89/126/38
f 92/127/35 94/128/35 96/129/35
f 98/130/37 99/131/37 97/132/37
f 100/133/40 103/134/40 99/131/40
f 104/135/39 101/136/39 103/134/39
f 102/137/36 97/138/36 101/136/36
f 99/139/38 101/136/38 97/140/38
f 100/141/35 102/142/35 104/143/35
f 106/1/41 107/2/41 105/3/41
f 108/4/42 109/5/42 107/2/42
f 110/6/43 111/7/43 109/5/43
f 112/8/44 113/9/44 111/7/44
f 114/10/45 115/11/45 113/9/45
f 116/12/46 117/13/46 115/11/46
f 118/14/47 119/15/47 117/13/47
f 120/16/48 121/17/48 119/15/48
f 121/17/49 124/20/49 123/19/49
f 124/20/50 125/21/50 123/19/50
f 126/22/51 127/23/51 125/21/51
f 128/24/52 129/25/52 127/23/52
f 130/26/53 131/27/53 129/25/53
f 132/28/54 133/29/54 131/27/54
f 134/30/55 135/31/55 133/29/55
f 136/32/56 137/33/56 135/31/56
f 138/34/57 139/35/57 137/33/57
f 140/36/58 141/37/58 139/35/58
f 142/38/59 143/39/59 141/37/59
f 144/40/60 145/41/60 143/39/60
f 146/42/61 147/43/61 145/41/61
f 148/44/62 149/45/62 147/43/62
f 150/46/63 151/47/63 149/45/63
f 152/48/64 153/49/64 151/47/64
f 154/50/65 155/51/65 153/49/65
f 156/52/66 157/53/66 155/51/66
f 158/54/67 159/55/67 157/53/67
f 160/56/68 161/57/68 159/55/68
f 162/58/69 163/59/69 161/57/69
f 164/60/70 165/61/70 163/59/70
f 142/62/71 126/63/71 110/64/71
f 166/65/72 167/66/72 165/61/72
f 168/67/73 105/68/73 167/66/73
f 135/69/74 151/70/74 167/71/74
f 2/1/1 4/4/1 3/2/1
f 4/4/2 6/6/2 5/5/2
f 6/6/3 8/8/3 7/7/3
f 8/8/4 10/10/4 9/9/4
f 10/10/5 12/12/5 11/11/5
f 12/12/6 14/14/6 13/13/6
f 14/14/7 16/16/7 15/15/7
f 16/16/8 18/18/8 17/17/8
f 18/18/9 20/20/9 19/19/9
f 20/20/10 22/22/10 21/21/10
f 22/22/11 24/24/11 23/23/11
f 24/24/12 26/26/12 25/25/12
f 26/26/13 28/28/13 27/27/13
f 28/28/14 30/30/14 29/29/14
f 30/30/15 32/32/15 31/31/15
f 32/32/16 34/34/16 33/33/16
f 34/34/17 36/36/17 35/35/17
f 36/36/18 38/38/18 37/37/18
f 38/38/19 40/40/19 39/39/19
f 40/40/20 42/42/20 41/41/20
f 42/42/21 44/44/21 43/43/21
f 44/44/22 46/46/22 45/45/22
f 46/46/23 48/48/23 47/47/23
f 48/48/24 50/50/24 49/49/24
f 50/50/25 52/52/25 51/51/25
f 52/52/26 54/54/26 53/53/26
f 54/54/27 56/56/27 55/55/27
f 56/56/28 58/58/28 57/57/28
f 58/58/29 60/60/29 59/59/29
f 60/60/30 62/65/30 61/61/30
f 6/64/31 4/144/31 2/145/31
f 2/145/31 64/146/31 62/147/31
f 62/147/31 60/148/31 58/149/31
f 58/149/31 56/150/31 54/151/31
f 54/151/31 52/152/31 50/153/31
f 50/153/31 48/154/31 46/155/31
f 46/155/31 44/156/31 42/157/31
f 42/157/31 40/158/31 38/62/31
f 38/62/31 36/159/31 34/160/31
f 34/160/31 32/161/31 30/162/31
f 30/162/31 28/163/31 26/164/31
f 26/164/31 24/165/31 22/63/31
f 22/63/31 20/166/31 18/167/31
f 18/167/31 16/168/31 14/169/31
f 14/169/31 12/170/31 10/171/31
f 10/171/31 8/172/31 6/64/31
f 6/64/31 2/145/31 62/147/31
f 62/147/31 58/149/31 54/151/31
f 54/151/31 50/153/31 46/155/31
f 46/155/31 42/157/31 38/62/31
f 38/62/31 34/160/31 30/162/31
f 30/162/31 26/164/31 22/63/31
f 22/63/31 18/167/31 14/169/31
f 14/169/31 10/171/31 6/64/31
f 6/64/31 62/147/31 54/151/31
f 54/151/31 46/155/31 38/62/31
f 38/62/31 30/162/31 22/63/31
f 22/63/31 14/169/31 6/64/31
f 6/64/31 54/151/31 38/62/31
f 62/65/32 64/67/32 63/66/32
f 64/67/33 2/173/33 1/68/33
f 63/71/34 1/174/34 3/175/34
f 3/175/34 5/176/34 7/177/34
f 7/177/34 9/178/34 11/179/34
f 11/179/34 13/180/34 15/181/34
f 15/181/34 17/182/34 19/183/34
f 19/183/34 21/184/34 23/185/34
f 23/185/34 25/186/34 27/187/34
f 27/187/34 29/188/34 31/69/34
f 31/69/34 33/189/34 35/190/34
f 35/190/34 37/191/34 39/192/34
f 39/192/34 41/193/34 43/194/34
f 43/194/34 45/195/34 47/70/34
f 47/70/34 49/196/34 51/197/34
f 51/197/34 53/198/34 55/199/34
f 55/199/34 57/200/34 59/201/34
f 59/201/34 61/202/34 63/71/34
f 63/71/34 3/175/34 7/177/34
f 7/177/34 11/179/34 15/181/34
f 15/181/34 19/183/34 23/185/34
f 23/185/34 27/187/34 31/69/34
f 31/69/34 35/190/34 39/192/34
f 39/192/34 43/194/34 47/70/34
f 47/70/34 51/197/34 55/199/34
f 55/199/34 59/201/34 63/71/34
f 63/71/34 7/177/34 15/181/34
f 15/181/34 23/185/34 31/69/34
f 31/69/34 39/192/34 47/70/34
f 47/70/34 55/199/34 63/71/34
f 63/71/34 15/181/34 31/69/34
f 69/72/35 71/203/35 67/73/35
f 68/75/36 67/204/36 71/76/36
f 71/78/37 69/205/37 70/79/37
f 70/81/38 66/206/38 68/75/38
f 66/83/39 65/207/39 67/84/39
f 69/86/40 65/208/40 66/87/40
f 73/89/37 74/209/37 76/90/37
f 76/90/40 80/93/40 79/92/40
f 80/93/39 78/210/39 77/94/39
f 77/94/36 78/210/36 74/95/36
f 75/97/38 79/92/38 77/94/38
f 76/99/35 74/211/35 78/100/35
f 82/102/37 84/105/37 83/103/37
f 84/105/40 88/107/40 87/106/40
f 88/107/39 86/109/39 85/108/39
f 86/109/36 82/212/36 81/110/36
f 83/111/38 87/106/38 85/108/38
f 84/113/35 82/213/35 86/114/35
f 90/116/37 92/119/37 91/117/37
f 92/119/40 96/121/40 95/120/40
f 96/121/39 94/123/39 93/122/39
f 94/123/36 90/214/36 89/124/36
f 91/125/38 95/120/38 93/122/38
f 92/127/35 90/215/35 94/128/35
f 98/130/37 100/133/37 99/131/37
f 100/133/40 104/135/40 103/134/40
f 104/135/39 102/137/39 101/136/39
f 102/137/36 98/216/36 97/138/36
f 99/139/38 103/134/38 101/136/38
f 100/141/35 98/217/35 102/142/35
f 106/1/41 108/4/41 107/2/41
f 108/4/42 110/6/42 109/5/42
f 110/6/43 112/8/43 111/7/43
f 112/8/44 114/10/44 113/9/44
f 114/10/45 116/12/45 115/11/45
f 116/12/46 118/14/46 117/13/46
f 118/14/47 120/16/47 119/15/47
f 120/16/48 122/18/48 121/17/48
f 121/17/49 122/18/49 124/20/49
f 124/20/50 126/22/50 125/21/50
f 126/22/51 128/24/51 127/23/51
f 128/24/52 130/26/52 129/25/52
f 130/26/53 132/28/53 131/27/53
f 132/28/54 134/30/54 133/29/54
f 134/30/55 136/32/55 135/31/55
f 136/32/56 138/34/56 137/33/56
f 138/34/57 140/36/57 139/35/57
f 140/36/58 142/38/58 141/37/58
f 142/38/59 144/40/59 143/39/59
f 144/40/60 146/42/60 145/41/60
f 146/42/61 148/44/61 147/43/61
f 148/44/62 150/46/62 149/45/62
f 150/46/63 152/48/63 151/47/63
f 152/48/64 154/50/64 153/49/64
f 154/50/65 156/52/65 155/51/65
f 156/52/66 158/54/66 157/53/66
f 158/54/67 160/56/67 159/55/67
f 160/56/68 162/58/68 161/57/68
f 162/58/69 164/60/69 163/59/69
f 164/60/70 166/65/70 165/61/70
f 110/64/71 108/144/71 106/145/71
f 106/145/75 168/146/75 166/147/75
f 166/147/71 164/148/71 162/149/71
f 162/149/71 160/150/71 158/151/71
f 158/151/71 156/152/71 154/153/71
f 154/153/76 152/154/76 150/155/76
f 150/155/71 148/156/71 146/157/71
f 146/157/71 144/158/71 142/62/71
f 142/62/71 140/159/71 138/160/71
f 138/160/77 136/161/77 134/162/77
f 134/162/71 132/163/71 130/164/71
f 130/164/71 128/165/71 126/63/71
f 126/63/71 124/166/71 122/167/71
f 122/167/78 120/168/78 118/169/78
f 118/169/71 116/170/71 114/171/71
f 114/171/71 112/172/71 110/64/71
f 110/64/71 106/145/71 166/147/71
f 166/147/78 162/149/78 158/151/78
f 158/151/71 154/153/71 150/155/71
f 150/155/76 146/157/76 142/62/76
f 142/62/71 138/160/71 134/162/71
f 134/162/76 130/164/76 126/63/76
f 126/63/71 122/167/71 118/169/71
f 118/169/78 114/171/78 110/64/78
f 110/64/71 166/147/71 158/151/71
f 158/151/71 150/155/71 142/62/71
f 142/62/71 134/162/71 126/63/71
f 126/63/71 118/169/71 110/64/71
f 110/64/71 158/151/71 142/62/71
f 166/65/72 168/67/72 167/66/72
f 168/67/73 106/173/73 105/68/73
f 167/71/74 105/174/74 107/175/74
f 107/175/79 109/176/79 111/177/79
f 111/177/79 113/178/79 115/179/79
f 115/179/80 117/180/80 119/181/80
f 119/181/74 121/182/74 123/183/74
f 123/183/74 125/184/74 127/185/74
f 127/185/74 129/186/74 131/187/74
f 131/187/79 133/188/79 135/69/79
f 135/69/74 137/189/74 139/190/74
f 139/190/81 141/191/81 143/192/81
f 143/192/81 145/193/81 147/194/81
f 147/194/82 149/195/82 151/70/82
f 151/70/74 153/196/74 155/197/74
f 155/197/74 157/198/74 159/199/74
f 159/199/74 161/200/74 163/201/74
f 163/201/81 165/202/81 167/71/81
f 167/71/74 107/175/74 111/177/74
f 111/177/74 115/179/74 119/181/74
f 119/181/74 123/183/74 127/185/74
f 127/185/74 131/187/74 135/69/74
f 135/69/74 139/190/74 143/192/74
f 143/192/74 147/194/74 151/70/74
f 151/70/74 155/197/74 159/199/74
f 159/199/74 163/201/74 167/71/74
f 167/71/74 111/177/74 119/181/74
f 119/181/74 127/185/74 135/69/74
f 135/69/74 143/192/74 151/70/74
f 151/70/74 159/199/74 167/71/74
f 167/71/74 119/181/74 135/69/74
